# xmcd
#
# Track frame offsets:
#	150
#	18229
#	35092
#	53590
#	71327
#	89063
#	107723
#	126220
#
# Disc length: 1905 seconds
#
# Revision: 0
# Processed by: cddbd v1.5.2PL0 Copyright (c) Steve Scherf et al.
# Submitted via: EasyCDDAExtractor 2010.6.0.0
#
DISCID=67076f08
DTITLE=서영은 - With Soulish Mates (EP)
DYEAR=1900
DGENRE=
TTITLE0=이 거지같은 말 (With 정엽 Of 브라운 아이드소울)
TTITLE1=너는 날 녹여 (With 노블레스) 
TTITLE2=존댓말 ("주인공" 다시 부르기 1) 
TTITLE3=혹시 돌아올까봐 (With H-유진) 
TTITLE4=가슴이 아파 눈물이 흘러 (With 길미) 
TTITLE5=이 거지같은 말 (Guitar and Piano ver.) 
TTITLE6=그 흔한 말 ("주인공" 다시 부르기2)
TTITLE7=너는 날 녹여 (inst.) 
EXTD=
EXTT0=
EXTT1=
EXTT2=
EXTT3=
EXTT4=
EXTT5=
EXTT6=
EXTT7=
PLAYORDER=
